<svg xmlns="http://www.w3.org/2000/svg" width="640" height="640" viewBox="0 0 320 320"><rect width="320" height="320" fill="white"/><path d="M 157.277 160 A 1.277 1.277 0 1 1 154.723 160 A 1.277 1.277 0 1 1 157.277 160 Z M 156 161.277 L 156 158.723 L 157.333 158.497 L 157.333 161.503 Z M 158.836 160 A 1.503 1.503 0 1 1 155.83 160 A 1.503 1.503 0 1 1 158.836 160 Z M 157.333 161.503 L 157.333 158.497 L 158.667 158.455 L 158.667 161.545 Z M 160.212 160 A 1.545 1.545 0 1 1 157.122 160 A 1.545 1.545 0 1 1 160.212 160 Z M 158.667 161.545 L 158.667 158.455 L 160 158.435 L 160 161.565 Z M 161.565 160 A 1.565 1.565 0 1 1 158.435 160 A 1.565 1.565 0 1 1 161.565 160 Z M 160 161.565 L 160 158.435 L 161.333 158.462 L 161.333 161.538 Z M 162.871 160 A 1.538 1.538 0 1 1 159.795 160 A 1.538 1.538 0 1 1 162.871 160 Z M 161.333 161.538 L 161.333 158.462 L 162.667 158.539 L 162.667 161.461 Z M 164.128 160 A 1.461 1.461 0 1 1 161.206 160 A 1.461 1.461 0 1 1 164.128 160 Z M 162.667 161.461 L 162.667 158.539 L 164 158.723 L 164 161.277 Z M 165.277 160 A 1.277 1.277 0 1 1 162.723 160 A 1.277 1.277 0 1 1 165.277 160 Z " fill="black" fill-rule="nonzero"/></svg>